<svg width="71" height="42" viewBox="0 0 71 42" fill="none" xmlns="http://www.w3.org/2000/svg">
<path d="M7.34668 41.9716H63.3123L35.4779 14.583L7.34668 41.9716Z" fill="#7BB51C"/>
<path d="M6.27716 40.6248L10.6374 36.4393L9.18506 34.9736L6.44643 37.6036L1.62201 32.7363L0 34.2934L6.27716 40.6248Z" fill="#121212"/>
<path d="M11.5945 35.4862L16.0622 31.1961L14.8352 29.9594L11.9984 32.6825L10.6362 31.3082L12.9094 29.1258L11.6256 27.8319L9.35232 30.0131L8.1852 28.836L10.9287 26.2016L9.70258 24.9653L5.24902 29.2411L11.5945 35.4862Z" fill="#121212"/>
<path d="M26.2178 15.1487C24.4161 13.3312 21.2904 13.5486 19.7852 14.994C18.2795 16.4394 17.5111 19.3215 19.6373 21.4661C21.9727 23.8214 24.7514 22.966 26.257 21.5214C28.4769 19.3902 27.6867 16.6302 26.2178 15.1487ZM24.8936 20.2767C23.8969 21.2336 22.6785 20.974 21.2864 19.5695C20.1164 18.3897 20.1867 17.2043 21.0375 16.3874C21.6225 15.8257 22.8106 15.3232 24.2242 16.7491C25.8369 18.3758 25.8902 19.3199 24.8936 20.2767Z" fill="#121212"/>
<path d="M31.2425 16.6579L32.8908 15.0749L30.4111 12.5741L28.9269 6.49756L27.0374 8.31186L28.0203 11.7592L24.6996 10.5559L22.918 12.266L28.5795 14.0549L31.2425 16.6579Z" fill="#121212"/>
<path d="M22.4547 25.1043C22.4547 25.1043 18.4431 23.7575 18.2524 23.7901C18.1906 23.8 19.1141 21.3819 17.0392 20.3102C17.0392 20.3102 15.4996 19.4901 13.9588 20.8675L10.6748 24.052L17.0057 30.3258L18.6806 28.7178L15.2548 25.2633L20.7927 26.7L22.4547 25.1043ZM16.2413 24.2429C15.3106 25.1349 15.1849 25.2053 15.1849 25.2053C15.1849 25.2053 13.7257 23.7336 13.674 23.6816C13.6223 23.6295 14.7175 22.7056 14.89 22.5399C14.9631 22.4695 15.6451 22.0318 16.2094 22.6007C16.2094 22.6007 17.1717 23.3492 16.2413 24.2429Z" fill="#121212"/>
<path d="M30.7315 7.69487L29.2666 6.24152L35.6617 0L37.7548 2.07627L35.4508 6.53808L40.148 4.45068L42.1619 6.44903L35.7668 12.6906L34.2231 11.1593L37.5988 7.86501L32.9809 9.92657L32.0262 8.97927L34.1726 4.43955L30.7315 7.69487Z" fill="#121212"/>
<path d="M41.8355 18.7109L37.4014 14.3123L43.7969 8.0708L48.2436 12.4825L46.9516 13.7435L44.1657 10.9799L43.1239 11.9964L45.3211 14.1764L43.9759 15.489L41.7919 13.3221L40.3941 14.686L43.1537 17.4237L41.8355 18.7109Z" fill="#121212"/>
<path d="M56.4571 20.6309L58.1049 22.2663L53.2655 26.9889L55.9727 29.6737L54.4165 31.1935L50.0615 26.8728L56.4571 20.6309Z" fill="#121212"/>
<path d="M55.5674 32.3358L61.9629 26.0942L63.5716 27.6899L57.1761 33.931L55.5674 32.3358Z" fill="#121212"/>
<path d="M60.0923 36.8256L58.5879 35.3329L64.9838 29.0918L67.1682 31.2575L65.3018 37.7379L69.5351 33.6061L71 35.0594L64.6049 41.3006L62.6948 39.4068L64.3395 32.6035L60.0923 36.8256Z" fill="#121212"/>
<path d="M53.5666 17.7637L49.6823 13.9097L43.2734 20.1385L44.9213 21.7731L48.4154 18.3631L47.1578 23.9921L48.8448 25.666C48.8448 25.666 50.1748 21.6395 50.2156 21.4718C50.2156 21.4718 51.6566 22.2529 53.2378 20.9152C53.2378 20.9152 54.7544 19.4611 53.5666 17.7637ZM51.1948 19.5891C51.1948 19.5891 50.3784 20.1285 49.6589 19.415L48.535 18.2471C48.535 18.2471 49.8928 16.9217 50.0641 16.7544C50.0641 16.7544 51.1104 17.7927 51.2413 17.9223C51.3718 18.0519 52.1967 18.6625 51.1948 19.5891Z" fill="#121212"/>
</svg>
