<svg width="97" height="24" viewBox="0 0 97 24" fill="none" xmlns="http://www.w3.org/2000/svg">
<g clip-path="url(#clip0_786_52178)">
<path d="M96.9999 0V23.9812H90.6565L80.9849 13.1707V23.9812H75.7482L73.2412 17.3813V0H79.5844L89.2558 11.309V0H96.9999Z" fill="#8F9424"/>
<path d="M73.2412 17.3823L75.7482 23.9822H73.2412V17.3823Z" fill="#1D662E"/>
<path d="M73.2426 17.3813V23.9801H67.4784L66.5319 21.08H57.8769L56.8953 23.9801H53.5954L55.8415 17.3219H51.1553L57.7376 0H66.6383L73.2426 17.3813ZM64.3956 14.638L62.2231 8.12442L60.0505 14.638H64.3956Z" fill="#5480BA"/>
<path d="M55.8401 17.3232L53.5941 23.9814H48.625L51.1539 17.3232H55.8401Z" fill="#6B367D"/>
<path d="M51.1549 17.323L48.6259 23.9812H43.8158L41.2803 17.3051V0H49.0251V17.323H51.1549Z" fill="#E04580"/>
<path d="M41.2803 17.3057L43.8158 23.9818H41.2803V17.3057Z" fill="#6B367D"/>
<path d="M41.2789 17.3051V23.9801H35.5454L34.599 21.08H25.9439L24.9624 23.9801H16.6934L23.2746 6.65703H25.8035V0H34.7053L41.28 17.3051H41.2789ZM32.4605 14.638L30.289 8.12442L28.1165 14.638H32.4605Z" fill="#8F9424"/>
<path d="M25.8034 0V6.65815H23.2744L25.8034 0Z" fill="#1D662E"/>
<path d="M25.8029 0L23.2739 6.65815H16.6927V23.9812H8.94792V6.65815H0V0H25.8029Z" fill="#5480BA"/>
</g>
<defs>
<clipPath id="clip0_786_52178">
<rect width="97" height="24" fill="white"/>
</clipPath>
</defs>
</svg>
